999
Inkscape export via "Better DXF Output" (bob@bobcookdev.com)
  0
SECTION
  2
HEADER
  9
$ACADVER
  1
AC1014
  9
$HANDSEED
  5
FFFF
  0
ENDSEC
  0
SECTION
  2
TABLES
  0
TABLE
  2
VPORT
  5
8
330
0
100
AcDbSymbolTable
 70
     4
  0
VPORT
  5
2E
330
8
100
AcDbSymbolTableRecord
100
AcDbViewportTableRecord
  2
*ACTIVE
 70
     0
 10
0.0
 20
0.0
 11
1.0
 21
1.0
 12
4.25
 22
5.5
 13
0.0
 23
0.0
 14
10.0
 24
10.0
 15
10.0
 25
10.0
 16
0.0
 26
0.0
 36
1.0
 17
0.0
 27
0.0
 37
0.0
 40
11
 41
1.24
 42
50.0
 43
0.0
 44
0.0
 50
0.0
 51
0.0
 71
     0
 72
   100
 73
     1
 74
     3
 75
     0
 76
     0
 77
     0
 78
     0
  0
ENDTAB
  0
TABLE
  2
LTYPE
  5
5
330
0
100
AcDbSymbolTable
 70
     1
  0
LTYPE
  5
14
330
5
100
AcDbSymbolTableRecord
100
AcDbLinetypeTableRecord
  2
BYBLOCK
 70
     0
  3

 72
    65
 73
     0
 40
0.0
  0
LTYPE
  5
15
330
5
100
AcDbSymbolTableRecord
100
AcDbLinetypeTableRecord
  2
BYLAYER
 70
     0
  3

 72
    65
 73
     0
 40
0.0
  0
LTYPE
  5
16
330
5
100
AcDbSymbolTableRecord
100
AcDbLinetypeTableRecord
  2
CONTINUOUS
 70
     0
  3
Solid line
 72
    65
 73
     0
 40
0.0
  0
ENDTAB
  0
TABLE
  2
LAYER
  5
2
330
0
100
AcDbSymbolTable
 70
1
  0
LAYER
  5
10
330
2
100
AcDbSymbolTableRecord
100
AcDbLayerTableRecord
  2
0
 70
     0
 62
     7
  6
CONTINUOUS
  0
ENDTAB
  0
TABLE
  2
STYLE
  5
3
330
0
100
AcDbSymbolTable
 70
     1
  0
STYLE
  5
11
330
3
100
AcDbSymbolTableRecord
100
AcDbTextStyleTableRecord
  2
STANDARD
 70
     0
 40
0.0
 41
1.0
 50
0.0
 71
     0
 42
2.5
  3
txt
  4

  0
ENDTAB
  0
TABLE
  2
VIEW
  5
6
330
0
100
AcDbSymbolTable
 70
     0
  0
ENDTAB
  0
TABLE
  2
UCS
  5
7
330
0
100
AcDbSymbolTable
 70
     0
  0
ENDTAB
  0
TABLE
  2
APPID
  5
9
330
0
100
AcDbSymbolTable
 70
     2
  0
APPID
  5
12
330
9
100
AcDbSymbolTableRecord
100
AcDbRegAppTableRecord
  2
ACAD
 70
     0
  0
ENDTAB
  0
TABLE
  2
DIMSTYLE
  5
A
330
0
100
AcDbSymbolTable
 70
     1
  0
DIMSTYLE
105
27
330
A
100
AcDbSymbolTableRecord
100
AcDbDimStyleTableRecord
  2
ISO-25
 70
     0
  3

  4

  5

  6

  7

 40
1.0
 41
2.5
 42
0.625
 43
3.75
 44
1.25
 45
0.0
 46
0.0
 47
0.0
 48
0.0
140
2.5
141
2.5
142
0.0
143
0.03937007874016
144
1.0
145
0.0
146
1.0
147
0.625
 71
     0
 72
     0
 73
     0
 74
     0
 75
     0
 76
     0
 77
     1
 78
     8
170
     0
171
     3
172
     1
173
     0
174
     0
175
     0
176
     0
177
     0
178
     0
270
     2
271
     2
272
     2
273
     2
274
     3
340
11
275
     0
280
     0
281
     0
282
     0
283
     0
284
     8
285
     0
286
     0
287
     3
288
     0
  0
ENDTAB
  0
TABLE
  2
BLOCK_RECORD
  5
1
330
0
100
AcDbSymbolTable
 70
     1
  0
BLOCK_RECORD
  5
1F
330
1
100
AcDbSymbolTableRecord
100
AcDbBlockTableRecord
  2
*MODEL_SPACE
  0
BLOCK_RECORD
  5
1B
330
1
100
AcDbSymbolTableRecord
100
AcDbBlockTableRecord
  2
*PAPER_SPACE
  0
ENDTAB
  0
ENDSEC
  0
SECTION
  2
BLOCKS
  0
BLOCK
  5
20
330
1F
100
AcDbEntity
  8
0
100
AcDbBlockBegin
  2
*MODEL_SPACE
 70
     0
 10
0.0
 20
0.0
 30
0.0
  3
*MODEL_SPACE
  1

  0
ENDBLK
  5
21
330
1F
100
AcDbEntity
  8
0
100
AcDbBlockEnd
  0
BLOCK
  5
1C
330
1B
100
AcDbEntity
 67
     1
  8
0
100
AcDbBlockBegin
  2
*PAPER_SPACE
  1

  0
ENDBLK
  5
1D
330
1B
100
AcDbEntity
 67
     1
  8
0
100
AcDbBlockEnd
  0
ENDSEC
  0
SECTION
  2
ENTITIES
0
LINE
8
Calque 1
62
4
5
100
100
AcDbEntity
100
AcDbLine
10
13.227112
20
8.288304
30
0.0
11
13.566625
21
8.454532
31
0.0
0
LINE
8
Calque 1
62
4
5
101
100
AcDbEntity
100
AcDbLine
10
13.566625
20
8.454532
30
0.0
11
14.164382
21
8.934541
31
0.0
0
LINE
8
Calque 1
62
4
5
102
100
AcDbEntity
100
AcDbLine
10
14.164382
20
8.934541
30
0.0
11
14.609692
21
9.573310
31
0.0
0
LINE
8
Calque 1
62
4
5
103
100
AcDbEntity
100
AcDbLine
10
14.609692
20
9.573310
30
0.0
11
14.900870
21
10.343702
31
0.0
0
LINE
8
Calque 1
62
4
5
104
100
AcDbEntity
100
AcDbLine
10
14.900870
20
10.343702
30
0.0
11
15.036227
21
11.218582
31
0.0
0
LINE
8
Calque 1
62
4
5
105
100
AcDbEntity
100
AcDbLine
10
15.036227
20
11.218582
30
0.0
11
15.014078
21
12.170813
31
0.0
0
LINE
8
Calque 1
62
4
5
106
100
AcDbEntity
100
AcDbLine
10
15.014078
20
12.170813
30
0.0
11
14.832736
21
13.173258
31
0.0
0
LINE
8
Calque 1
62
4
5
107
100
AcDbEntity
100
AcDbLine
10
14.832736
20
13.173258
30
0.0
11
14.490514
21
14.198782
31
0.0
0
LINE
8
Calque 1
62
4
5
108
100
AcDbEntity
100
AcDbLine
10
14.490514
20
14.198782
30
0.0
11
13.985725
21
15.220249
31
0.0
0
LINE
8
Calque 1
62
4
5
109
100
AcDbEntity
100
AcDbLine
10
13.985725
20
15.220249
30
0.0
11
13.348798
21
16.164326
31
0.0
0
LINE
8
Calque 1
62
4
5
10a
100
AcDbEntity
100
AcDbLine
10
13.348798
20
16.164326
30
0.0
11
12.627602
21
16.969444
31
0.0
0
LINE
8
Calque 1
62
4
5
10b
100
AcDbEntity
100
AcDbLine
10
12.627602
20
16.969444
30
0.0
11
11.846609
21
17.623565
31
0.0
0
LINE
8
Calque 1
62
4
5
10c
100
AcDbEntity
100
AcDbLine
10
11.846609
20
17.623565
30
0.0
11
11.030294
21
18.114649
31
0.0
0
LINE
8
Calque 1
62
4
5
10d
100
AcDbEntity
100
AcDbLine
10
11.030294
20
18.114649
30
0.0
11
10.203132
21
18.430659
31
0.0
0
LINE
8
Calque 1
62
4
5
10e
100
AcDbEntity
100
AcDbLine
10
10.203132
20
18.430659
30
0.0
11
9.389595
21
18.559555
31
0.0
0
LINE
8
Calque 1
62
4
5
10f
100
AcDbEntity
100
AcDbLine
10
9.389595
20
18.559555
30
0.0
11
8.614159
21
18.489299
31
0.0
0
LINE
8
Calque 1
62
4
5
110
100
AcDbEntity
100
AcDbLine
10
8.614159
20
18.489299
30
0.0
11
7.901297
21
18.207853
31
0.0
0
LINE
8
Calque 1
62
4
5
111
100
AcDbEntity
100
AcDbLine
10
7.901297
20
18.207853
30
0.0
11
7.303588
21
17.728573
31
0.0
0
LINE
8
Calque 1
62
4
5
112
100
AcDbEntity
100
AcDbLine
10
7.303588
20
17.728573
30
0.0
11
6.858406
21
17.090147
31
0.0
0
LINE
8
Calque 1
62
4
5
113
100
AcDbEntity
100
AcDbLine
10
6.858406
20
17.090147
30
0.0
11
6.567410
21
16.319799
31
0.0
0
LINE
8
Calque 1
62
4
5
114
100
AcDbEntity
100
AcDbLine
10
6.567410
20
16.319799
30
0.0
11
6.432259
21
15.444755
31
0.0
0
LINE
8
Calque 1
62
4
5
115
100
AcDbEntity
100
AcDbLine
10
6.432259
20
15.444755
30
0.0
11
6.454616
21
14.492241
31
0.0
0
LINE
8
Calque 1
62
4
5
116
100
AcDbEntity
100
AcDbLine
10
6.454616
20
14.492241
30
0.0
11
6.636138
21
13.489483
31
0.0
0
LINE
8
Calque 1
62
4
5
117
100
AcDbEntity
100
AcDbLine
10
6.636138
20
13.489483
30
0.0
11
6.978488
21
12.463706
31
0.0
0
LINE
8
Calque 1
62
4
5
118
100
AcDbEntity
100
AcDbLine
10
6.978488
20
12.463706
30
0.0
11
7.483325
21
11.442137
31
0.0
0
LINE
8
Calque 1
62
4
5
119
100
AcDbEntity
100
AcDbLine
10
7.483325
20
11.442137
30
0.0
11
8.241939
21
10.347397
31
0.0
0
LINE
8
Calque 1
62
4
5
11a
100
AcDbEntity
100
AcDbLine
10
8.241939
20
10.347397
30
0.0
11
8.241939
21
7.452644
31
0.0
0
LINE
8
Calque 1
62
4
5
11b
100
AcDbEntity
100
AcDbLine
10
8.241939
20
7.452644
30
0.0
11
4.439559
21
9.647486
31
0.0
0
LINE
8
Calque 1
62
4
5
11c
100
AcDbEntity
100
AcDbLine
10
4.439559
20
9.647486
30
0.0
11
4.439559
21
23.534797
31
0.0
0
LINE
8
Calque 1
62
4
5
11d
100
AcDbEntity
100
AcDbLine
10
4.439559
20
23.534797
30
0.0
11
2.048572
21
24.915146
31
0.0
0
LINE
8
Calque 1
62
4
5
11e
100
AcDbEntity
100
AcDbLine
10
2.048572
20
24.915146
30
0.0
11
1.199242
21
23.069122
31
0.0
0
LINE
8
Calque 1
62
4
5
11f
100
AcDbEntity
100
AcDbLine
10
1.199242
20
23.069122
30
0.0
11
0.572268
21
21.111920
31
0.0
0
LINE
8
Calque 1
62
4
5
120
100
AcDbEntity
100
AcDbLine
10
0.572268
20
21.111920
30
0.0
11
0.184053
21
19.059256
31
0.0
0
LINE
8
Calque 1
62
4
5
121
100
AcDbEntity
100
AcDbLine
10
0.184053
20
19.059256
30
0.0
11
0.051003
21
16.926846
31
0.0
0
LINE
8
Calque 1
62
4
5
122
100
AcDbEntity
100
AcDbLine
10
0.051003
20
16.926846
30
0.0
11
0.135300
21
15.225335
31
0.0
0
LINE
8
Calque 1
62
4
5
123
100
AcDbEntity
100
AcDbLine
10
0.135300
20
15.225335
30
0.0
11
0.382824
21
13.571982
31
0.0
0
LINE
8
Calque 1
62
4
5
124
100
AcDbEntity
100
AcDbLine
10
0.382824
20
13.571982
30
0.0
11
0.785524
21
11.974814
31
0.0
0
LINE
8
Calque 1
62
4
5
125
100
AcDbEntity
100
AcDbLine
10
0.785524
20
11.974814
30
0.0
11
1.335348
21
10.441859
31
0.0
0
LINE
8
Calque 1
62
4
5
126
100
AcDbEntity
100
AcDbLine
10
1.335348
20
10.441859
30
0.0
11
2.024245
21
8.981143
31
0.0
0
LINE
8
Calque 1
62
4
5
127
100
AcDbEntity
100
AcDbLine
10
2.024245
20
8.981143
30
0.0
11
2.844165
21
7.600694
31
0.0
0
LINE
8
Calque 1
62
4
5
128
100
AcDbEntity
100
AcDbLine
10
2.844165
20
7.600694
30
0.0
11
3.787055
21
6.308538
31
0.0
0
LINE
8
Calque 1
62
4
5
129
100
AcDbEntity
100
AcDbLine
10
3.787055
20
6.308538
30
0.0
11
4.844865
21
5.112704
31
0.0
0
LINE
8
Calque 1
62
4
5
12a
100
AcDbEntity
100
AcDbLine
10
4.844865
20
5.112704
30
0.0
11
7.273040
21
3.042108
31
0.0
0
LINE
8
Calque 1
62
4
5
12b
100
AcDbEntity
100
AcDbLine
10
7.273040
20
3.042108
30
0.0
11
8.627302
21
2.183401
31
0.0
0
LINE
8
Calque 1
62
4
5
12c
100
AcDbEntity
100
AcDbLine
10
8.627302
20
2.183401
30
0.0
11
10.064279
21
1.453124
31
0.0
0
LINE
8
Calque 1
62
4
5
12d
100
AcDbEntity
100
AcDbLine
10
10.064279
20
1.453124
30
0.0
11
11.575919
21
0.859304
31
0.0
0
LINE
8
Calque 1
62
4
5
12e
100
AcDbEntity
100
AcDbLine
10
11.575919
20
0.859304
30
0.0
11
13.154173
21
0.409968
31
0.0
0
LINE
8
Calque 1
62
4
5
12f
100
AcDbEntity
100
AcDbLine
10
13.154173
20
0.409968
30
0.0
11
14.790987
21
0.113144
31
0.0
0
LINE
8
Calque 1
62
4
5
130
100
AcDbEntity
100
AcDbLine
10
14.790987
20
0.113144
30
0.0
11
16.478312
21
-0.023141
31
0.0
0
LINE
8
Calque 1
62
4
5
131
100
AcDbEntity
100
AcDbLine
10
16.478312
20
-0.023141
30
0.0
11
16.478312
21
2.698892
31
0.0
0
LINE
8
Calque 1
62
4
5
132
100
AcDbEntity
100
AcDbLine
10
16.478312
20
2.698892
30
0.0
11
13.227112
21
4.575106
31
0.0
0
LINE
8
Calque 1
62
4
5
133
100
AcDbEntity
100
AcDbLine
10
13.227112
20
4.575106
30
0.0
11
13.227112
21
8.288304
31
0.0
0
LINE
8
Calque 1
62
4
5
134
100
AcDbEntity
100
AcDbLine
10
13.227112
20
8.288304
30
0.0
11
13.227112
21
8.288304
31
0.0
0
LINE
8
Calque 1
62
4
5
135
100
AcDbEntity
100
AcDbLine
10
31.990374
20
24.893980
30
0.0
11
29.588381
21
23.507140
31
0.0
0
LINE
8
Calque 1
62
4
5
136
100
AcDbEntity
100
AcDbLine
10
29.588381
20
23.507140
30
0.0
11
29.588381
21
19.164869
31
0.0
0
LINE
8
Calque 1
62
4
5
137
100
AcDbEntity
100
AcDbLine
10
29.588381
20
19.164869
30
0.0
11
26.966819
21
17.678686
31
0.0
0
LINE
8
Calque 1
62
4
5
138
100
AcDbEntity
100
AcDbLine
10
26.966819
20
17.678686
30
0.0
11
26.296541
21
18.240873
31
0.0
0
LINE
8
Calque 1
62
4
5
139
100
AcDbEntity
100
AcDbLine
10
26.296541
20
18.240873
30
0.0
11
25.583597
21
18.522400
31
0.0
0
LINE
8
Calque 1
62
4
5
13a
100
AcDbEntity
100
AcDbLine
10
25.583597
20
18.522400
30
0.0
11
24.808123
21
18.592694
31
0.0
0
LINE
8
Calque 1
62
4
5
13b
100
AcDbEntity
100
AcDbLine
10
24.808123
20
18.592694
30
0.0
11
23.994582
21
18.463803
31
0.0
0
LINE
8
Calque 1
62
4
5
13c
100
AcDbEntity
100
AcDbLine
10
23.994582
20
18.463803
30
0.0
11
23.167437
21
18.147775
31
0.0
0
LINE
8
Calque 1
62
4
5
13d
100
AcDbEntity
100
AcDbLine
10
23.167437
20
18.147775
30
0.0
11
22.351154
21
17.656659
31
0.0
0
LINE
8
Calque 1
62
4
5
13e
100
AcDbEntity
100
AcDbLine
10
22.351154
20
17.656659
30
0.0
11
21.570196
21
17.002504
31
0.0
0
LINE
8
Calque 1
62
4
5
13f
100
AcDbEntity
100
AcDbLine
10
21.570196
20
17.002504
30
0.0
11
20.849028
21
16.197358
31
0.0
0
LINE
8
Calque 1
62
4
5
140
100
AcDbEntity
100
AcDbLine
10
20.849028
20
16.197358
30
0.0
11
20.212112
21
15.253269
31
0.0
0
LINE
8
Calque 1
62
4
5
141
100
AcDbEntity
100
AcDbLine
10
20.212112
20
15.253269
30
0.0
11
19.707310
21
14.231754
31
0.0
0
LINE
8
Calque 1
62
4
5
142
100
AcDbEntity
100
AcDbLine
10
19.707310
20
14.231754
30
0.0
11
19.365044
21
13.206106
31
0.0
0
LINE
8
Calque 1
62
4
5
143
100
AcDbEntity
100
AcDbLine
10
19.365044
20
13.206106
30
0.0
11
19.183625
21
12.203490
31
0.0
0
LINE
8
Calque 1
62
4
5
144
100
AcDbEntity
100
AcDbLine
10
19.183625
20
12.203490
30
0.0
11
19.161363
21
11.251073
31
0.0
0
LINE
8
Calque 1
62
4
5
145
100
AcDbEntity
100
AcDbLine
10
19.161363
20
11.251073
30
0.0
11
19.296568
21
10.376019
31
0.0
0
LINE
8
Calque 1
62
4
5
146
100
AcDbEntity
100
AcDbLine
10
19.296568
20
10.376019
30
0.0
11
19.587550
21
9.605496
31
0.0
0
LINE
8
Calque 1
62
4
5
147
100
AcDbEntity
100
AcDbLine
10
19.587550
20
9.605496
30
0.0
11
20.032618
21
8.966670
31
0.0
0
LINE
8
Calque 1
62
4
5
148
100
AcDbEntity
100
AcDbLine
10
20.032618
20
8.966670
30
0.0
11
20.630083
21
8.486706
31
0.0
0
LINE
8
Calque 1
62
4
5
149
100
AcDbEntity
100
AcDbLine
10
20.630083
20
8.486706
30
0.0
11
21.342934
21
8.205505
31
0.0
0
LINE
8
Calque 1
62
4
5
14a
100
AcDbEntity
100
AcDbLine
10
21.342934
20
8.205505
30
0.0
11
22.118338
21
8.135379
31
0.0
0
LINE
8
Calque 1
62
4
5
14b
100
AcDbEntity
100
AcDbLine
10
22.118338
20
8.135379
30
0.0
11
22.931829
21
8.264332
31
0.0
0
LINE
8
Calque 1
62
4
5
14c
100
AcDbEntity
100
AcDbLine
10
22.931829
20
8.264332
30
0.0
11
23.758940
21
8.580368
31
0.0
0
LINE
8
Calque 1
62
4
5
14d
100
AcDbEntity
100
AcDbLine
10
23.758940
20
8.580368
30
0.0
11
24.575203
21
9.071493
31
0.0
0
LINE
8
Calque 1
62
4
5
14e
100
AcDbEntity
100
AcDbLine
10
24.575203
20
9.071493
30
0.0
11
25.356150
21
9.725710
31
0.0
0
LINE
8
Calque 1
62
4
5
14f
100
AcDbEntity
100
AcDbLine
10
25.356150
20
9.725710
30
0.0
11
26.077315
21
10.531024
31
0.0
0
LINE
8
Calque 1
62
4
5
150
100
AcDbEntity
100
AcDbLine
10
26.077315
20
10.531024
30
0.0
11
26.714230
21
11.475439
31
0.0
0
LINE
8
Calque 1
62
4
5
151
100
AcDbEntity
100
AcDbLine
10
26.714230
20
11.475439
30
0.0
11
27.483850
21
13.245819
31
0.0
0
LINE
8
Calque 1
62
4
5
152
100
AcDbEntity
100
AcDbLine
10
27.483850
20
13.245819
30
0.0
11
29.588381
21
14.463890
31
0.0
0
LINE
8
Calque 1
62
4
5
153
100
AcDbEntity
100
AcDbLine
10
29.588381
20
14.463890
30
0.0
11
29.588381
21
9.647486
31
0.0
0
LINE
8
Calque 1
62
4
5
154
100
AcDbEntity
100
AcDbLine
10
29.588381
20
9.647486
30
0.0
11
17.607201
21
2.730784
31
0.0
0
LINE
8
Calque 1
62
4
5
155
100
AcDbEntity
100
AcDbLine
10
17.607201
20
2.730784
30
0.0
11
17.607201
21
-0.020883
31
0.0
0
LINE
8
Calque 1
62
4
5
156
100
AcDbEntity
100
AcDbLine
10
17.607201
20
-0.020883
30
0.0
11
19.289461
21
0.120155
31
0.0
0
LINE
8
Calque 1
62
4
5
157
100
AcDbEntity
100
AcDbLine
10
19.289461
20
0.120155
30
0.0
11
20.921169
21
0.420892
31
0.0
0
LINE
8
Calque 1
62
4
5
158
100
AcDbEntity
100
AcDbLine
10
20.921169
20
0.420892
30
0.0
11
22.494325
21
0.873341
31
0.0
0
LINE
8
Calque 1
62
4
5
159
100
AcDbEntity
100
AcDbLine
10
22.494325
20
0.873341
30
0.0
11
24.000928
21
1.469515
31
0.0
0
LINE
8
Calque 1
62
4
5
15a
100
AcDbEntity
100
AcDbLine
10
24.000928
20
1.469515
30
0.0
11
25.432978
21
2.201427
31
0.0
0
LINE
8
Calque 1
62
4
5
15b
100
AcDbEntity
100
AcDbLine
10
25.432978
20
2.201427
30
0.0
11
26.782475
21
3.061090
31
0.0
0
LINE
8
Calque 1
62
4
5
15c
100
AcDbEntity
100
AcDbLine
10
26.782475
20
3.061090
30
0.0
11
29.201807
21
5.131719
31
0.0
0
LINE
8
Calque 1
62
4
5
15d
100
AcDbEntity
100
AcDbLine
10
29.201807
20
5.131719
30
0.0
11
31.194922
21
7.617506
31
0.0
0
LINE
8
Calque 1
62
4
5
15e
100
AcDbEntity
100
AcDbLine
10
31.194922
20
7.617506
30
0.0
11
32.011647
21
8.996116
31
0.0
0
LINE
8
Calque 1
62
4
5
15f
100
AcDbEntity
100
AcDbLine
10
32.011647
20
8.996116
30
0.0
11
32.697817
21
10.454554
31
0.0
0
LINE
8
Calque 1
62
4
5
160
100
AcDbEntity
100
AcDbLine
10
32.697817
20
10.454554
30
0.0
11
33.245431
21
11.984834
31
0.0
0
LINE
8
Calque 1
62
4
5
161
100
AcDbEntity
100
AcDbLine
10
33.245431
20
11.984834
30
0.0
11
33.646490
21
13.578967
31
0.0
0
LINE
8
Calque 1
62
4
5
162
100
AcDbEntity
100
AcDbLine
10
33.646490
20
13.578967
30
0.0
11
33.892991
21
15.228967
31
0.0
0
LINE
8
Calque 1
62
4
5
163
100
AcDbEntity
100
AcDbLine
10
33.892991
20
15.228967
30
0.0
11
33.976937
21
16.926846
31
0.0
0
LINE
8
Calque 1
62
4
5
164
100
AcDbEntity
100
AcDbLine
10
33.976937
20
16.926846
30
0.0
11
33.844535
21
19.052932
31
0.0
0
LINE
8
Calque 1
62
4
5
165
100
AcDbEntity
100
AcDbLine
10
33.844535
20
19.052932
30
0.0
11
33.458318
21
21.099855
31
0.0
0
LINE
8
Calque 1
62
4
5
166
100
AcDbEntity
100
AcDbLine
10
33.458318
20
21.099855
30
0.0
11
32.834770
21
23.052056
31
0.0
0
LINE
8
Calque 1
62
4
5
167
100
AcDbEntity
100
AcDbLine
10
32.834770
20
23.052056
30
0.0
11
31.990374
21
24.893980
31
0.0
0
LINE
8
Calque 1
62
4
5
168
100
AcDbEntity
100
AcDbLine
10
31.990374
20
24.893980
30
0.0
11
31.990374
21
24.893980
31
0.0
0
LINE
8
Calque 1
62
4
5
169
100
AcDbEntity
100
AcDbLine
10
22.293501
20
24.446657
30
0.0
11
22.178896
21
25.204475
31
0.0
0
LINE
8
Calque 1
62
4
5
16a
100
AcDbEntity
100
AcDbLine
10
22.178896
20
25.204475
30
0.0
11
21.850214
21
25.910213
31
0.0
0
LINE
8
Calque 1
62
4
5
16b
100
AcDbEntity
100
AcDbLine
10
21.850214
20
25.910213
30
0.0
11
21.330151
21
26.548780
31
0.0
0
LINE
8
Calque 1
62
4
5
16c
100
AcDbEntity
100
AcDbLine
10
21.330151
20
26.548780
30
0.0
11
20.641407
21
27.105085
31
0.0
0
LINE
8
Calque 1
62
4
5
16d
100
AcDbEntity
100
AcDbLine
10
20.641407
20
27.105085
30
0.0
11
19.806679
21
27.564036
31
0.0
0
LINE
8
Calque 1
62
4
5
16e
100
AcDbEntity
100
AcDbLine
10
19.806679
20
27.564036
30
0.0
11
18.848666
21
27.910543
31
0.0
0
LINE
8
Calque 1
62
4
5
16f
100
AcDbEntity
100
AcDbLine
10
18.848666
20
27.910543
30
0.0
11
17.790064
21
28.129514
31
0.0
0
LINE
8
Calque 1
62
4
5
170
100
AcDbEntity
100
AcDbLine
10
17.790064
20
28.129514
30
0.0
11
16.653572
21
28.205857
31
0.0
0
LINE
8
Calque 1
62
4
5
171
100
AcDbEntity
100
AcDbLine
10
16.653572
20
28.205857
30
0.0
11
14.678017
21
27.968791
31
0.0
0
LINE
8
Calque 1
62
4
5
172
100
AcDbEntity
100
AcDbLine
10
14.678017
20
27.968791
30
0.0
11
12.836799
21
29.014989
31
0.0
0
LINE
8
Calque 1
62
4
5
173
100
AcDbEntity
100
AcDbLine
10
12.836799
20
29.014989
30
0.0
11
17.015099
21
31.426013
31
0.0
0
LINE
8
Calque 1
62
4
5
174
100
AcDbEntity
100
AcDbLine
10
17.015099
20
31.426013
30
0.0
11
29.031557
21
24.488426
31
0.0
0
LINE
8
Calque 1
62
4
5
175
100
AcDbEntity
100
AcDbLine
10
29.031557
20
24.488426
30
0.0
11
31.425930
21
25.871880
31
0.0
0
LINE
8
Calque 1
62
4
5
176
100
AcDbEntity
100
AcDbLine
10
31.425930
20
25.871880
30
0.0
11
30.196962
21
27.598020
31
0.0
0
LINE
8
Calque 1
62
4
5
177
100
AcDbEntity
100
AcDbLine
10
30.196962
20
27.598020
30
0.0
11
28.767203
21
29.154816
31
0.0
0
LINE
8
Calque 1
62
4
5
178
100
AcDbEntity
100
AcDbLine
10
28.767203
20
29.154816
30
0.0
11
27.155277
21
30.523528
31
0.0
0
LINE
8
Calque 1
62
4
5
179
100
AcDbEntity
100
AcDbLine
10
27.155277
20
30.523528
30
0.0
11
25.379813
21
31.685411
31
0.0
0
LINE
8
Calque 1
62
4
5
17a
100
AcDbEntity
100
AcDbLine
10
25.379813
20
31.685411
30
0.0
11
23.459436
21
32.621723
31
0.0
0
LINE
8
Calque 1
62
4
5
17b
100
AcDbEntity
100
AcDbLine
10
23.459436
20
32.621723
30
0.0
11
21.412774
21
33.313723
31
0.0
0
LINE
8
Calque 1
62
4
5
17c
100
AcDbEntity
100
AcDbLine
10
21.412774
20
33.313723
30
0.0
11
19.258452
21
33.742667
31
0.0
0
LINE
8
Calque 1
62
4
5
17d
100
AcDbEntity
100
AcDbLine
10
19.258452
20
33.742667
30
0.0
11
17.015099
21
33.889813
31
0.0
0
LINE
8
Calque 1
62
4
5
17e
100
AcDbEntity
100
AcDbLine
10
17.015099
20
33.889813
30
0.0
11
14.774579
21
33.743065
31
0.0
0
LINE
8
Calque 1
62
4
5
17f
100
AcDbEntity
100
AcDbLine
10
14.774579
20
33.743065
30
0.0
11
12.622791
21
33.315266
31
0.0
0
LINE
8
Calque 1
62
4
5
180
100
AcDbEntity
100
AcDbLine
10
12.622791
20
33.315266
30
0.0
11
10.578297
21
32.625087
31
0.0
0
LINE
8
Calque 1
62
4
5
181
100
AcDbEntity
100
AcDbLine
10
10.578297
20
32.625087
30
0.0
11
8.659663
21
31.691196
31
0.0
0
LINE
8
Calque 1
62
4
5
182
100
AcDbEntity
100
AcDbLine
10
8.659663
20
31.691196
30
0.0
11
6.885451
21
30.532264
31
0.0
0
LINE
8
Calque 1
62
4
5
183
100
AcDbEntity
100
AcDbLine
10
6.885451
20
30.532264
30
0.0
11
5.274227
21
29.166961
31
0.0
0
LINE
8
Calque 1
62
4
5
184
100
AcDbEntity
100
AcDbLine
10
5.274227
20
29.166961
30
0.0
11
3.844552
21
27.613955
31
0.0
0
LINE
8
Calque 1
62
4
5
185
100
AcDbEntity
100
AcDbLine
10
3.844552
20
27.613955
30
0.0
11
2.614992
21
25.891917
31
0.0
0
LINE
8
Calque 1
62
4
5
186
100
AcDbEntity
100
AcDbLine
10
2.614992
20
25.891917
30
0.0
11
5.020654
21
24.502820
31
0.0
0
LINE
8
Calque 1
62
4
5
187
100
AcDbEntity
100
AcDbLine
10
5.020654
20
24.502820
30
0.0
11
8.741190
21
26.650249
31
0.0
0
LINE
8
Calque 1
62
4
5
188
100
AcDbEntity
100
AcDbLine
10
8.741190
20
26.650249
30
0.0
11
11.145723
21
25.256917
31
0.0
0
LINE
8
Calque 1
62
4
5
189
100
AcDbEntity
100
AcDbLine
10
11.145723
20
25.256917
30
0.0
11
11.013361
21
24.446657
31
0.0
0
LINE
8
Calque 1
62
4
5
18a
100
AcDbEntity
100
AcDbLine
10
11.013361
20
24.446657
30
0.0
11
11.127932
21
23.689071
31
0.0
0
LINE
8
Calque 1
62
4
5
18b
100
AcDbEntity
100
AcDbLine
10
11.127932
20
23.689071
30
0.0
11
11.456534
21
22.983415
31
0.0
0
LINE
8
Calque 1
62
4
5
18c
100
AcDbEntity
100
AcDbLine
10
11.456534
20
22.983415
30
0.0
11
11.976502
21
22.344817
31
0.0
0
LINE
8
Calque 1
62
4
5
18d
100
AcDbEntity
100
AcDbLine
10
11.976502
20
22.344817
30
0.0
11
12.665172
21
21.788406
31
0.0
0
LINE
8
Calque 1
62
4
5
18e
100
AcDbEntity
100
AcDbLine
10
12.665172
20
21.788406
30
0.0
11
13.499879
21
21.329309
31
0.0
0
LINE
8
Calque 1
62
4
5
18f
100
AcDbEntity
100
AcDbLine
10
13.499879
20
21.329309
30
0.0
11
14.457958
21
20.982653
31
0.0
0
LINE
8
Calque 1
62
4
5
190
100
AcDbEntity
100
AcDbLine
10
14.457958
20
20.982653
30
0.0
11
15.516744
21
20.763566
31
0.0
0
LINE
8
Calque 1
62
4
5
191
100
AcDbEntity
100
AcDbLine
10
15.516744
20
20.763566
30
0.0
11
16.653572
21
20.687175
31
0.0
0
LINE
8
Calque 1
62
4
5
192
100
AcDbEntity
100
AcDbLine
10
16.653572
20
20.687175
30
0.0
11
17.790064
21
20.763566
31
0.0
0
LINE
8
Calque 1
62
4
5
193
100
AcDbEntity
100
AcDbLine
10
17.790064
20
20.763566
30
0.0
11
18.848666
21
20.982653
31
0.0
0
LINE
8
Calque 1
62
4
5
194
100
AcDbEntity
100
AcDbLine
10
18.848666
20
20.982653
30
0.0
11
19.806679
21
21.329309
31
0.0
0
LINE
8
Calque 1
62
4
5
195
100
AcDbEntity
100
AcDbLine
10
19.806679
20
21.329309
30
0.0
11
20.641407
21
21.788406
31
0.0
0
LINE
8
Calque 1
62
4
5
196
100
AcDbEntity
100
AcDbLine
10
20.641407
20
21.788406
30
0.0
11
21.330151
21
22.344817
31
0.0
0
LINE
8
Calque 1
62
4
5
197
100
AcDbEntity
100
AcDbLine
10
21.330151
20
22.344817
30
0.0
11
21.850214
21
22.983415
31
0.0
0
LINE
8
Calque 1
62
4
5
198
100
AcDbEntity
100
AcDbLine
10
21.850214
20
22.983415
30
0.0
11
22.178896
21
23.689071
31
0.0
0
LINE
8
Calque 1
62
4
5
199
100
AcDbEntity
100
AcDbLine
10
22.178896
20
23.689071
30
0.0
11
22.293501
21
24.446657
31
0.0
0
LINE
8
Calque 1
62
4
5
19a
100
AcDbEntity
100
AcDbLine
10
22.293501
20
24.446657
30
0.0
11
22.293501
21
24.446657
31
0.0
  0
ENDSEC
  0
SECTION
  2
OBJECTS
  0
DICTIONARY
  5
C
330
0
100
AcDbDictionary
  3
ACAD_GROUP
350
D
  3
ACAD_MLINESTYLE
350
17
  0
DICTIONARY
  5
D
330
C
100
AcDbDictionary
  0
DICTIONARY
  5
1A
330
C
100
AcDbDictionary
  0
DICTIONARY
  5
17
330
C
100
AcDbDictionary
  3
STANDARD
350
18
  0
DICTIONARY
  5
19
330
C
100
AcDbDictionary
  0
ENDSEC
  0
EOF
